<svg width="525.553" height="232.137" xmlns="http://www.w3.org/2000/svg">

 <g>
  <title>background</title>
  <rect fill="none" id="canvas_background" height="402" width="582" y="-1" x="-1"/>
 </g>
 <g>
  <title>Layer 1</title>
  <path id="svg_1" d="m485.48,0c-22.097,0 -40.073,17.977 -40.073,40.073c0,22.097 17.977,40.074 40.073,40.074c22.096,0 40.072,-17.977 40.072,-40.074c0.001,-22.096 -17.976,-40.073 -40.072,-40.073m0,78.457c-21.164,0 -38.384,-17.219 -38.384,-38.384c0,-21.164 17.22,-38.383 38.384,-38.383c21.165,0 38.384,17.219 38.384,38.383c0,21.165 -17.218,38.384 -38.384,38.384" fill="#000000"/>
  <path id="svg_2" d="m496.444,55.434l-4.592,-11.496c-0.037,-0.094 -0.016,-0.2 0.056,-0.271l6.685,-6.683c0.047,-0.047 0.072,-0.111 0.072,-0.178l0,-11.41c0,-0.066 -0.025,-0.13 -0.072,-0.177l-7,-6.999c-0.048,-0.047 -0.111,-0.074 -0.178,-0.074l-11.584,0l-4.686,0l-4.732,0c-0.138,0 -0.25,0.112 -0.25,0.251l0,0.65c0,0.436 0.354,0.789 0.789,0.789l3.395,0c0.44,0 0.799,0.358 0.799,0.799l0,21.481c0,0.138 -0.112,0.25 -0.25,0.25l-4.482,0c-0.138,0 -0.25,0.113 -0.25,0.251l0,1.188c0,0.139 0.112,0.251 0.25,0.251l4.052,0c0.375,0 0.681,0.305 0.681,0.682l0,14.262c0,0.776 -0.629,1.405 -1.405,1.405l-2.903,0c-0.372,0 -0.674,0.303 -0.674,0.675l0,0.599c0,0.139 0.112,0.251 0.25,0.251l5.577,0l0.845,0l4.163,0c0.139,0 0.25,-0.112 0.25,-0.251l0,-0.599c0,-0.372 -0.302,-0.675 -0.674,-0.675l-2.622,0c-0.618,0 -1.119,-0.501 -1.119,-1.119l0,-14.98c0,-0.139 0.112,-0.251 0.251,-0.251l12.459,0c0.323,0 0.613,0.197 0.733,0.497l4.593,11.499c2.279,5.883 7.707,5.95 7.938,5.95l1.42,0c0.138,0 0.25,-0.112 0.25,-0.251l0,-0.513c0,-0.511 -0.414,-0.926 -0.926,-0.926l-0.74,0c-0.185,0 -4.514,-0.093 -6.369,-4.877m0.532,-29.338l0,10.01c0,0.067 -0.026,0.131 -0.073,0.178l-5.524,5.523c-0.128,0.128 -0.344,0.083 -0.409,-0.084l-7.041,-17.627c-0.668,-1.725 -1.607,-2.949 -2.607,-3.819c-0.176,-0.153 -0.072,-0.441 0.161,-0.441l9.233,0c0.066,0 0.131,0.026 0.178,0.073l6.01,6.01c0.045,0.046 0.072,0.11 0.072,0.177m-20.141,-5.853c0,-0.162 0.149,-0.282 0.308,-0.245c1.459,0.341 3.929,1.403 5.212,4.717l6.914,17.308c0.064,0.164 -0.057,0.343 -0.233,0.343l-11.949,0c-0.139,0 -0.251,-0.112 -0.251,-0.25l0,-21.873l-0.001,0z" fill="#000000"/>
  <path id="svg_3" d="m443.92,74.29c-4.643,-39.797 -33.162,-73.29 -73.953,-73.29l-69.641,0c-3.648,0 -6.633,2.985 -6.633,6.631l0,195.271l-52.711,-196.928c-0.664,-2.984 -3.316,-4.974 -6.302,-4.974l-44.437,0c-2.985,0 -5.637,1.99 -6.3,4.974l-49.295,183.13l-20.895,-48.821c-2.321,-4.975 -2.654,-7.628 1.989,-10.943c23.547,-15.918 34.49,-33.164 34.49,-58.698c0,-38.138 -31.505,-69.642 -69.641,-69.642l-72.959,0c-3.648,0 -6.632,2.985 -6.632,6.631l0,218.875c0,3.647 2.984,6.632 6.632,6.632l33.164,0c3.646,0 6.631,-2.984 6.631,-6.632l0,-82.907c0,-1.99 1.327,-3.315 3.317,-3.315l8.622,0c3.649,0 5.306,2.653 5.969,4.311l33.826,81.912c1.659,3.979 4.312,6.632 9.617,6.632l22.436,0l11.721,0l23.099,0c2.985,0 5.638,-1.989 6.302,-4.975l9.286,-34.156c0.662,-2.984 1.989,-4.975 4.974,-4.975l50.407,0c2.984,0 4.311,2.321 4.974,4.975l10.281,34.156c0.995,2.985 3.315,4.975 6.3,4.975l34.82,0l6.948,0l3.783,0l65.857,0c40.791,0 69.311,-33.493 73.953,-73.289c3.317,-27.859 3.317,-57.705 0.001,-85.56m-363.329,19.565l-29.847,0c-1.99,0 -3.317,-1.327 -3.317,-3.317l0,-39.795c0,-1.989 1.327,-3.315 3.317,-3.315l29.847,0c12.601,0 23.213,10.612 23.213,23.213c0,12.933 -10.612,23.214 -23.213,23.214m146.795,48.748l-30.511,0c-1.989,0 -3.315,-0.995 -2.651,-3.646l15.917,-79.591c0.331,-0.995 0.664,-1.326 1.658,-1.326l0.662,0c0.995,0 1.328,0.331 1.659,1.326l15.919,79.591c0.662,2.651 -0.664,3.646 -2.653,3.646m169.776,17.245c-1.659,14.591 -11.94,26.861 -27.195,26.861l-26.528,0c-1.99,0 -3.317,-1.325 -3.317,-3.315l0,-132.651c0,-1.989 1.327,-3.315 3.317,-3.315l26.528,0c15.255,0 25.536,12.269 27.195,26.862c3.317,27.855 3.317,57.701 0,85.558" fill="#000000"/>
 </g>
</svg>