<?xml version="1.0" encoding="utf-8"?>
<!-- Generator: Adobe Illustrator 16.0.3, SVG Export Plug-In . SVG Version: 6.00 Build 0)  -->
<!DOCTYPE svg PUBLIC "-//W3C//DTD SVG 1.1//EN" "http://www.w3.org/Graphics/SVG/1.1/DTD/svg11.dtd">
<svg version="1.1" id="Layer_1" xmlns="http://www.w3.org/2000/svg" xmlns:xlink="http://www.w3.org/1999/xlink" x="0px" y="0px"
	 width="1224px" height="792px" viewBox="0 0 1224 792" enable-background="new 0 0 1224 792" xml:space="preserve">
<g>
	<g>
		<g>
			<path d="M610.966,792C393.838,792,216,614.162,216,394.966C216,175.771,393.838,0,610.966,0s394.966,177.838,394.966,394.966
				S830.162,792,610.966,792z M610.966,26.882c-202.652,0-368.083,165.431-368.083,368.083
				c0,202.653,165.431,368.084,368.083,368.084c202.653,0,368.084-165.431,368.084-368.084
				C979.05,192.313,813.619,26.882,610.966,26.882z"/>
		</g>
	</g>
	<path d="M813.619,500.428h-26.883V419.78c0-6.203-6.203-12.407-12.407-12.407H449.671c-6.203,0-12.407,6.204-12.407,12.407v80.647
		h-26.883V392.898c0-6.204,6.204-12.407,12.407-12.407h380.491c6.204,0,12.407,6.203,12.407,12.407v107.529H813.619z"/>
</g>
</svg>
