<?xml version="1.0" encoding="utf-8"?>
<!-- Generator: Adobe Illustrator 16.0.3, SVG Export Plug-In . SVG Version: 6.00 Build 0)  -->
<!DOCTYPE svg PUBLIC "-//W3C//DTD SVG 1.1//EN" "http://www.w3.org/Graphics/SVG/1.1/DTD/svg11.dtd">
<svg version="1.1" id="Layer_1" xmlns="http://www.w3.org/2000/svg" xmlns:xlink="http://www.w3.org/1999/xlink" x="0px" y="0px"
	 width="1224px" height="792px" viewBox="0 0 1224 792" enable-background="new 0 0 1224 792" xml:space="preserve">
<g>
	<path d="M610.972,792C392.914,792,216,613.028,216,394.972C216,176.914,392.914,0,610.972,0
		c218.057,0,394.972,176.914,394.972,394.972C1008,613.028,829.028,792,610.972,792z M610.972,26.743
		c-203.657,0-368.229,164.572-368.229,368.229S407.314,763.2,610.972,763.2S979.2,598.629,979.2,394.972
		S814.629,26.743,610.972,26.743z"/>
	<path d="M812.571,501.942h-26.743V322.972c0-10.286-8.229-18.515-18.514-18.515H456.686c-10.285,0-18.514,8.229-18.514,18.515
		v178.971h-28.801V296.229c0-10.286,8.229-18.514,18.515-18.514H792c10.286,0,18.515,8.229,18.515,18.514v205.714H812.571z"/>
</g>
</svg>
