<?xml version="1.0" encoding="utf-8"?>
<!-- Generator: Adobe Illustrator 16.0.3, SVG Export Plug-In . SVG Version: 6.00 Build 0)  -->
<!DOCTYPE svg PUBLIC "-//W3C//DTD SVG 1.1//EN" "http://www.w3.org/Graphics/SVG/1.1/DTD/svg11.dtd">
<svg version="1.1" id="Layer_1" xmlns="http://www.w3.org/2000/svg" xmlns:xlink="http://www.w3.org/1999/xlink" x="0px" y="0px"
	 width="1224px" height="792px" viewBox="0 0 1224 792" enable-background="new 0 0 1224 792" xml:space="preserve">
<path d="M610.987,792c-105.33,0-204.583-40.512-279.529-115.458c-153.944-153.943-153.944-405.115,0-559.059
	C406.404,40.512,505.657,0,610.987,0S815.57,40.512,890.517,115.458c153.943,153.943,153.943,405.115,0,559.059
	C817.596,749.463,716.317,792,610.987,792z M610.987,26.333c-99.253,0-192.43,38.486-261.299,109.381
	c-143.816,143.816-143.816,378.783,0,524.625c70.895,70.895,162.046,109.381,261.299,109.381s192.43-38.486,261.299-109.381
	c143.816-143.816,143.816-378.783,0-524.625C803.417,64.818,710.24,26.333,610.987,26.333z"/>
<path d="M637.319,166.097v26.333c97.228,10.128,174.2,93.176,174.2,194.455c0,101.279-76.973,182.302-174.2,194.455v26.333
	c111.407-10.128,198.507-105.33,198.507-218.763C835.826,275.479,748.727,176.225,637.319,166.097z"/>
<polygon points="596.809,579.314 527.938,579.314 414.507,465.883 414.507,303.836 527.938,190.404 596.809,190.404 
	596.809,164.072 517.811,164.072 388.174,293.708 388.174,476.01 517.811,605.647 596.809,605.647 "/>
</svg>
