<?xml version="1.0" encoding="utf-8"?>
<!-- Generator: Adobe Illustrator 16.0.3, SVG Export Plug-In . SVG Version: 6.00 Build 0)  -->
<!DOCTYPE svg PUBLIC "-//W3C//DTD SVG 1.1//EN" "http://www.w3.org/Graphics/SVG/1.1/DTD/svg11.dtd">
<svg version="1.1"
	 id="svg2989" xmlns:dc="http://purl.org/dc/elements/1.1/" xmlns:cc="http://creativecommons.org/ns#" xmlns:rdf="http://www.w3.org/1999/02/22-rdf-syntax-ns#" xmlns:svg="http://www.w3.org/2000/svg" xmlns:sodipodi="http://sodipodi.sourceforge.net/DTD/sodipodi-0.dtd" xmlns:inkscape="http://www.inkscape.org/namespaces/inkscape" sodipodi:docname="shopping_cart_font_awesome.svg" inkscape:version="0.48.3.1 r9886"
	 xmlns="http://www.w3.org/2000/svg" xmlns:xlink="http://www.w3.org/1999/xlink" x="0px" y="0px" width="1224px" height="792px"
	 viewBox="0 0 1224 792" enable-background="new 0 0 1224 792" xml:space="preserve">
<sodipodi:namedview  inkscape:cy="896" inkscape:cx="896" inkscape:zoom="0.13169643" showgrid="false" guidetolerance="10" gridtolerance="10" objecttolerance="10" bordercolor="#666666" pagecolor="#ffffff" borderopacity="1" id="namedview2995" inkscape:current-layer="svg2989" inkscape:window-maximized="0" inkscape:window-y="25" inkscape:window-x="0" inkscape:window-height="480" inkscape:window-width="640" inkscape:pageopacity="0" inkscape:pageshadow="2">
	</sodipodi:namedview>
<path d="M888.487,600.604c-11.05-11.049-24.382-16.574-39.998-16.574s-28.948,5.525-39.998,16.574
	c-11.049,11.049-16.573,24.382-16.573,39.998c0,15.615,5.524,28.948,16.573,39.997c11.05,11.05,24.382,16.574,39.998,16.574
	s28.948-5.524,39.998-16.574c11.049-11.049,16.573-24.382,16.573-39.997C905.061,624.986,899.536,611.653,888.487,600.604z
	 M860.203,652.315c-3.542,3.542-6.717,4.858-11.714,4.858s-8.172-1.316-11.714-4.858c-3.541-3.541-4.857-6.716-4.857-11.713
	c0-4.998,1.316-8.173,4.857-11.714c3.542-3.541,6.717-4.858,11.714-4.858s8.172,1.317,11.715,4.859
	c3.54,3.54,4.856,6.715,4.856,11.713C865.061,645.6,863.744,648.774,860.203,652.315z"/>
<path d="M492.487,600.604c-11.05-11.049-24.382-16.574-39.998-16.574s-28.949,5.525-39.998,16.574s-16.573,24.382-16.573,39.998
	c0,15.615,5.524,28.948,16.573,39.997c11.049,11.05,24.382,16.574,39.998,16.574s28.948-5.524,39.998-16.574
	c11.049-11.049,16.573-24.382,16.573-39.997C509.061,624.986,503.536,611.653,492.487,600.604z M464.203,652.315
	c-3.542,3.542-6.717,4.858-11.714,4.858c-4.998,0-8.172-1.316-11.712-4.857c-3.542-3.542-4.859-6.717-4.859-11.714
	c0-4.998,1.316-8.173,4.857-11.714c3.542-3.542,6.717-4.858,11.714-4.858s8.172,1.317,11.715,4.859
	c3.54,3.54,4.856,6.715,4.856,11.713C469.061,645.6,467.744,648.774,464.203,652.315z"/>
<path d="M953.234,139.856c-5.598-5.598-12.228-8.397-19.888-8.397h-530.8c-0.294-2.063-0.957-5.819-1.988-11.27
	c-1.031-5.451-1.842-9.797-2.431-13.038c-0.59-3.241-1.694-7.145-3.315-11.712c-1.62-4.567-3.535-8.177-5.745-10.828
	c-2.21-2.652-5.156-4.936-8.84-6.851c-3.683-1.915-7.881-2.873-12.596-2.873H254.489c-7.661,0-14.291,2.799-19.889,8.397
	s-8.397,12.228-8.397,19.889c0,7.661,2.799,14.29,8.397,19.888s12.228,8.397,19.889,8.397h90.161l78.228,363.737
	c-0.59,1.178-3.609,6.776-9.061,16.795c-5.451,10.018-9.797,18.783-13.038,26.297c-3.241,7.513-4.861,13.332-4.861,17.457
	c0,7.66,2.799,14.29,8.397,19.889c5.598,5.598,12.228,8.396,19.888,8.396h452.572c7.66,0,14.29-2.799,19.888-8.396
	c5.599-5.599,8.397-12.229,8.397-19.889s-2.799-14.29-8.397-19.889c-5.598-5.598-12.228-8.396-19.888-8.396H470.168
	c7.071-14.144,10.606-23.572,10.606-28.286c0-2.946-0.368-6.188-1.104-9.724c-0.736-3.535-1.62-7.439-2.651-11.712
	s-1.694-7.439-1.989-9.502l461.411-53.92c7.365-0.884,13.406-4.052,18.12-9.502c4.714-5.451,7.071-11.712,7.071-18.784V159.745
	C961.632,152.084,958.833,145.455,953.234,139.856z M921.632,375.775l-471.668,55.119l-55.796-259.434h527.464V375.775z"/>
</svg>
